<mxfile host="app.diagrams.net" agent="Mozilla/5.0 (Windows NT 10.0; Win64; x64) AppleWebKit/537.36 (KHTML, like Gecko) Chrome/140.0.0.0 Safari/537.36 Edg/140.0.0.0" version="28.2.5">
  <diagram name="Sivu-1" id="DChuiHUm8rzLjZldopgU">
    <mxGraphModel dx="1034" dy="578" grid="1" gridSize="10" guides="1" tooltips="1" connect="1" arrows="1" fold="1" page="1" pageScale="1" pageWidth="827" pageHeight="1169" math="0" shadow="0">
      <root>
        <mxCell id="0" />
        <mxCell id="1" parent="0" />
        <mxCell id="FJW8fGVHR4VlawE2yVcJ-1" value="" style="whiteSpace=wrap;html=1;aspect=fixed;" vertex="1" parent="1">
          <mxGeometry x="170" y="435" width="455" height="455" as="geometry" />
        </mxCell>
        <object label="&lt;pre&gt;&lt;font style=&quot;font-size: 16px;&quot;&gt;Käyttäjä&lt;/font&gt;&lt;/pre&gt;" Käyttäjä="" id="FJW8fGVHR4VlawE2yVcJ-2">
          <mxCell style="shape=umlActor;verticalLabelPosition=bottom;verticalAlign=top;html=1;outlineConnect=0;" vertex="1" parent="1">
            <mxGeometry x="70" y="610" width="60" height="110" as="geometry" />
          </mxCell>
        </object>
        <mxCell id="FJW8fGVHR4VlawE2yVcJ-5" value="&lt;pre&gt;&lt;font style=&quot;font-size: 16px;&quot;&gt;Ylläpitäjä&lt;/font&gt;&lt;/pre&gt;" style="shape=umlActor;verticalLabelPosition=bottom;verticalAlign=top;html=1;outlineConnect=0;" vertex="1" parent="1">
          <mxGeometry x="670" y="610" width="60" height="110" as="geometry" />
        </mxCell>
        <mxCell id="FJW8fGVHR4VlawE2yVcJ-8" value="&lt;h1&gt;Äänestyssovellus&lt;/h1&gt;" style="text;html=1;align=center;verticalAlign=middle;resizable=0;points=[];autosize=1;strokeColor=none;fillColor=none;" vertex="1" parent="1">
          <mxGeometry x="265" y="378" width="230" height="70" as="geometry" />
        </mxCell>
        <mxCell id="FJW8fGVHR4VlawE2yVcJ-9" value="&lt;pre&gt;Selaa &lt;/pre&gt;&lt;pre&gt;äänestyksiä&lt;/pre&gt;" style="ellipse;whiteSpace=wrap;html=1;fontSize=16;" vertex="1" parent="1">
          <mxGeometry x="230" y="490" width="170" height="90" as="geometry" />
        </mxCell>
        <mxCell id="FJW8fGVHR4VlawE2yVcJ-10" value="&lt;pre&gt;&lt;font style=&quot;font-size: 16px;&quot;&gt;Katso&lt;/font&gt;&lt;/pre&gt;&lt;pre&gt;&lt;font style=&quot;font-size: 16px;&quot;&gt; äänestystilanne&lt;/font&gt;&lt;/pre&gt;" style="ellipse;whiteSpace=wrap;html=1;" vertex="1" parent="1">
          <mxGeometry x="230" y="610" width="170" height="90" as="geometry" />
        </mxCell>
        <mxCell id="FJW8fGVHR4VlawE2yVcJ-11" value="&lt;pre&gt;&lt;font style=&quot;font-size: 16px;&quot;&gt;Äänestä &lt;/font&gt;&lt;/pre&gt;&lt;pre&gt;&lt;font style=&quot;font-size: 16px;&quot;&gt;äänestyksessä&lt;/font&gt;&lt;/pre&gt;&lt;pre&gt;&lt;font style=&quot;font-size: 16px;&quot;&gt;&lt;/font&gt;&lt;/pre&gt;&lt;pre&gt;&lt;font style=&quot;font-size: 16px;&quot;&gt;&lt;/font&gt;&lt;/pre&gt;&lt;div&gt;&lt;/div&gt;" style="ellipse;whiteSpace=wrap;html=1;" vertex="1" parent="1">
          <mxGeometry x="240" y="730" width="170" height="90" as="geometry" />
        </mxCell>
        <mxCell id="FJW8fGVHR4VlawE2yVcJ-12" value="&lt;pre&gt;&lt;font style=&quot;font-size: 16px;&quot;&gt;Luo uusi&lt;br&gt;&lt;/font&gt;&lt;font style=&quot;font-size: 16px;&quot;&gt;&amp;nbsp;äänestys&lt;/font&gt;&lt;/pre&gt;" style="ellipse;whiteSpace=wrap;html=1;" vertex="1" parent="1">
          <mxGeometry x="430" y="545" width="170" height="85" as="geometry" />
        </mxCell>
        <mxCell id="FJW8fGVHR4VlawE2yVcJ-13" value="&lt;pre&gt;&lt;font style=&quot;font-size: 16px;&quot;&gt;Poista &lt;/font&gt;&lt;/pre&gt;&lt;pre&gt;&lt;font style=&quot;font-size: 16px;&quot;&gt;äänestys&lt;/font&gt;&lt;/pre&gt;" style="ellipse;whiteSpace=wrap;html=1;" vertex="1" parent="1">
          <mxGeometry x="440" y="680" width="160" height="90" as="geometry" />
        </mxCell>
        <mxCell id="FJW8fGVHR4VlawE2yVcJ-15" value="" style="endArrow=none;html=1;rounded=0;entryX=0.045;entryY=0.698;entryDx=0;entryDy=0;entryPerimeter=0;" edge="1" parent="1" source="FJW8fGVHR4VlawE2yVcJ-2" target="FJW8fGVHR4VlawE2yVcJ-9">
          <mxGeometry width="50" height="50" relative="1" as="geometry">
            <mxPoint x="390" y="690" as="sourcePoint" />
            <mxPoint x="440" y="640" as="targetPoint" />
          </mxGeometry>
        </mxCell>
        <mxCell id="FJW8fGVHR4VlawE2yVcJ-16" value="" style="endArrow=none;html=1;rounded=0;" edge="1" parent="1" source="FJW8fGVHR4VlawE2yVcJ-2">
          <mxGeometry width="50" height="50" relative="1" as="geometry">
            <mxPoint x="390" y="690" as="sourcePoint" />
            <mxPoint x="230" y="660" as="targetPoint" />
          </mxGeometry>
        </mxCell>
        <mxCell id="FJW8fGVHR4VlawE2yVcJ-17" value="" style="endArrow=none;html=1;rounded=0;entryX=0;entryY=0.5;entryDx=0;entryDy=0;" edge="1" parent="1" source="FJW8fGVHR4VlawE2yVcJ-2" target="FJW8fGVHR4VlawE2yVcJ-11">
          <mxGeometry width="50" height="50" relative="1" as="geometry">
            <mxPoint x="140" y="700" as="sourcePoint" />
            <mxPoint x="440" y="640" as="targetPoint" />
          </mxGeometry>
        </mxCell>
        <mxCell id="FJW8fGVHR4VlawE2yVcJ-18" value="" style="endArrow=none;html=1;rounded=0;exitX=1;exitY=1;exitDx=0;exitDy=0;" edge="1" parent="1" source="FJW8fGVHR4VlawE2yVcJ-12">
          <mxGeometry width="50" height="50" relative="1" as="geometry">
            <mxPoint x="390" y="690" as="sourcePoint" />
            <mxPoint x="660" y="660" as="targetPoint" />
          </mxGeometry>
        </mxCell>
        <mxCell id="FJW8fGVHR4VlawE2yVcJ-19" value="" style="endArrow=none;html=1;rounded=0;entryX=1;entryY=0.5;entryDx=0;entryDy=0;" edge="1" parent="1" target="FJW8fGVHR4VlawE2yVcJ-13">
          <mxGeometry width="50" height="50" relative="1" as="geometry">
            <mxPoint x="670" y="680" as="sourcePoint" />
            <mxPoint x="390" y="690" as="targetPoint" />
            <Array as="points">
              <mxPoint x="670" y="680" />
            </Array>
          </mxGeometry>
        </mxCell>
      </root>
    </mxGraphModel>
  </diagram>
</mxfile>
